<svg width="300" height="120" viewBox="0 0 300 120" fill="none" xmlns="http://www.w3.org/2000/svg">
    <path fill-rule="evenodd" clip-rule="evenodd"
        d="M121.105 1.105C50.059 6.211 -2.985 32.152 0.333 60.167C5.622 104.818 134.411 130.331 231.682 105.997C280.359 93.82 305.939 72.396 298.509 50.028C296.135 42.88 286.63 32.929 276.36 26.84C242.411 6.714 182.117 -3.281 121.105 1.105ZM189.5 7.594C240.179 12.562 281.945 29.202 291.411 48.197C298.762 62.95 290.229 76.549 266.031 88.645C202.316 120.494 67.037 115.803 19.754 80.104C-2.372 63.399 2.463 43.221 32.258 27.916C68.32 9.392 128.502 1.614 189.5 7.594ZM121.5 12.064C74.629 15.365 34.925 26.618 18.499 41.259C11.212 47.754 8.628 52.778 9.25 59.247C11.232 79.876 52.933 97.199 114.5 102.968C128.685 104.297 171.315 104.297 185.5 102.968C247.067 97.199 288.768 79.876 290.75 59.247C293.624 29.341 209.437 5.872 121.5 12.064ZM85.374 31.952C88.769 33.243 90.392 36.398 89 39C86.967 42.798 81 41.226 81 36.893C81 33.451 79.812 33.281 71.932 35.594C60.537 38.939 51.023 53.457 53.91 63.094C56.248 70.897 63.712 73.142 71.849 68.49C76.726 65.702 79.102 66.103 76.315 69.244C73.465 72.457 66.091 75.275 60.316 75.359C45.381 75.575 39.889 57.36 51.062 44.667C58.874 35.792 77.408 28.924 85.374 31.952ZM193.639 34.502C194.596 36.995 193.127 40.825 190.95 41.516C188.619 42.256 186 40.505 186 38.206C186 34.282 192.37 31.194 193.639 34.502ZM116 45.118C116 45.597 113.933 51.154 111.407 57.467C108.881 63.779 106.986 69.457 107.195 70.086C107.423 70.768 108.931 70.088 110.939 68.398C113.452 66.284 114.032 66.065 113.237 67.534C111.904 69.996 106.993 74.589 105 75.24C102.588 76.027 100 74.124 100 71.564V69.198L97.014 71.987C93.122 75.623 89.448 76.524 86.47 74.572C83.468 72.606 82.647 69.839 83.458 64.429C84.332 58.602 89.413 51.227 95.232 47.338C99.579 44.433 100.616 44.178 107.982 44.21C112.392 44.229 116 44.638 116 45.118ZM134.78 48.939L134.305 53.879L137.121 49.991C138.67 47.853 140.822 45.631 141.903 45.052C146.796 42.433 151.173 45.131 149.168 49.53C147.867 52.385 145.437 52.705 142.847 50.362C141.329 48.988 140.78 48.938 139.441 50.049C137.478 51.678 134.091 58.423 131.015 66.825C128.287 74.279 124.906 77.335 122.286 74.715C120.828 73.257 121.004 72.245 124.356 62.811C126.37 57.14 128.014 51.643 128.009 50.595C128 48.751 127.935 48.749 125.994 50.506C122.502 53.666 122.76 51.397 126.322 47.62C128.642 45.16 130.62 44 132.495 44C135.199 44 135.245 44.099 134.78 48.939ZM164.397 48.971C164.295 53.422 164.302 53.431 165.897 50.973C169.011 46.176 172.239 43.887 175.448 44.201C178.087 44.46 178.542 44.941 178.814 47.757C179.207 51.833 176.84 53.019 172.865 50.737C170.147 49.177 169.998 49.214 167.622 52.037C166.278 53.635 163.502 59.267 161.454 64.553C157.779 74.037 155.623 76.545 152.25 75.262C150.325 74.529 150.683 72.362 154.646 60.741C158.147 50.477 158.466 46.275 155.429 50.429C154.654 51.488 153.763 52.097 153.449 51.782C153.134 51.467 154.322 49.564 156.088 47.553C158.497 44.809 159.948 43.971 161.899 44.198C164.286 44.475 164.492 44.869 164.397 48.971ZM186.561 58.513C184.398 64.81 182.869 70.202 183.162 70.495C183.455 70.788 184.912 70.07 186.4 68.9C189.86 66.178 190.635 66.923 187.926 70.367C185.317 73.684 180.644 76.184 178.555 75.383C175.356 74.155 175.667 70.137 179.886 58.194C184.306 45.683 186.31 42.881 188.951 45.522C190.34 46.911 190.103 48.198 186.561 58.513ZM221.023 45.012C223.739 46.466 224.633 52.386 222.603 55.484C220.459 58.755 216.81 60.543 209.237 62.033C203.546 63.153 203 63.483 203 65.801C203 68.738 205.585 72.002 207.905 71.995C208.782 71.992 211.3 70.881 213.5 69.526C215.7 68.171 217.916 67.048 218.424 67.031C220.456 66.963 214.23 72.393 210.201 74.204C205.083 76.505 201.248 75.957 197.959 72.456C191.97 66.081 198.258 49.947 208.5 45.408C212.1 43.812 218.408 43.613 221.023 45.012ZM240.603 45.409C240.901 46.184 240.692 48.547 240.14 50.659C239.336 53.734 239.372 54.106 240.318 52.524C243.212 47.686 247.935 43.861 250.619 44.181C254.056 44.59 255.911 47.331 254.388 49.75C252.822 52.237 250.183 52.475 247.827 50.343C245.848 48.552 245.747 48.579 243.395 51.505C242.071 53.152 239.359 58.689 237.368 63.81C233.398 74.016 230.176 77.604 227.437 74.866C226.18 73.609 226.508 71.893 229.988 61.536C232.185 54.998 233.764 49.43 233.497 49.164C233.23 48.897 232.11 49.496 231.006 50.494C227.794 53.401 228.606 50.24 231.923 46.923C235.045 43.801 239.676 42.993 240.603 45.409ZM98.548 51.079C91.986 58.342 89.022 68.008 93.117 68.787C95.524 69.246 100.239 64.814 103.27 59.245C109.13 48.478 105.917 42.922 98.548 51.079ZM207.662 51.952C204.045 55.956 202.823 60.021 205.25 59.978C207.34 59.941 214.415 56.42 215.827 54.714C217.968 52.125 216.917 48.548 213.912 48.199C211.951 47.971 210.438 48.879 207.662 51.952ZM258.455 107.455C257.105 108.805 256 111.075 256 112.5C256 115.834 260.166 120 263.5 120C266.834 120 271 115.834 271 112.5C271 109.166 266.834 105 263.5 105C262.075 105 259.805 106.105 258.455 107.455ZM267.365 108.073C268.919 109.295 270 111.141 270 112.573C270 115.533 266.739 119 263.955 119C261.53 119 257 114.766 257 112.5C257 110.53 261.405 106 263.32 106C264.096 106 265.916 106.933 267.365 108.073ZM261.136 112.75C261.211 115.362 261.467 116.487 261.706 115.25C262.248 112.435 263.592 112.369 265.046 115.086C265.66 116.233 266.415 116.919 266.724 116.61C267.032 116.301 266.797 115.46 266.2 114.741C265.537 113.942 265.459 112.875 266 112C267.119 110.189 265.411 108 262.878 108C261.285 108 261.021 108.722 261.136 112.75ZM265 110.5C265 111.325 264.325 112 263.5 112C262.675 112 262 111.325 262 110.5C262 109.675 262.675 109 263.5 109C264.325 109 265 109.675 265 110.5Z"
        fill="#323B8C" />
</svg>