<svg id="Layer_1" data-name="Layer 1" xmlns="http://www.w3.org/2000/svg" viewBox="0 0 241.56 127.89"
	width="128px" height="78px">
	<defs>
		<style>.cls-1{fill:none;}.cls-2{fill:#231f20;}.cls-3,.cls-4{fill:#ed1c2e;}.cls-3{stroke:#ed1c2e;stroke-width:0.2px;}.cls-4{stroke:#fff;stroke-width:2px;}.cls-5{fill:#fff;}</style>
	</defs>
	<path class="cls-1" d="M282.34,171l113.17-20L387.9,86.12H176.76l-7.62,64.81Z" transform="translate(-162.27 -79.97)"/>
	<path class="cls-2" d="M398,172.06a5.8,5.8,0,1,1,5.8-5.8A5.78,5.78,0,0,1,398,172.06Zm0-10.92a5.13,5.13,0,1,0,5.14,5.12A5.1,5.1,0,0,0,398,161.14Zm-2.15,1.76h2.86c1,0,1.95.19,2,1.63a1.6,1.6,0,0,1-.84,1.6c.66.42.67.52.78,1.63.06.84-.06,1,.3,1.53h-1l-.13-.81c-.14-.76.23-1.93-1.09-1.93h-2.1v2.74h-.83Zm.83.72v2.2h2.05c.55,0,1.09-.15,1.17-1,.12-1.09-.67-1.23-1.17-1.23Z" transform="translate(-162.27 -79.97)"/>
	<path class="cls-2" d="M177.39,203.5h-3.62v-6.57H171v6.57h-3.62V186.63H171v6.22h2.79v-6.22h3.62Z" transform="translate(-162.27 -79.97)"/>
	<path class="cls-2" d="M188.27,199.29c-.54,3.05-2.43,4.46-4.51,4.46a4.28,4.28,0,0,1-3.55-1.65,7.73,7.73,0,0,1-1.45-4.72,8.91,8.91,0,0,1,1.29-4.75,4.24,4.24,0,0,1,3.5-1.95c2.93,0,4.72,2.71,4.72,6.84v.67h-5.89c0,1.35.29,2.33,1.32,2.33.78,0,1.21-.44,1.35-1.52Zm-3.45-3.56c0-1.23-.27-2.17-1.24-2.17s-1.25,1-1.22,2.17Z" transform="translate(-162.27 -79.97)"/>
	<path class="cls-2" d="M195.26,203.5a11.27,11.27,0,0,1-.12-1.75,3,3,0,0,1-2.88,2c-1.64,0-3.07-1.28-3.07-3.79a4.07,4.07,0,0,1,2.31-3.86,10.66,10.66,0,0,1,3.46-.79v-.1c0-1.13-.2-1.57-1-1.57-.67,0-1.24.34-1.34,1.4l-3.14-.42a4.26,4.26,0,0,1,4.58-3.94,4.44,4.44,0,0,1,3.22,1.09c1.16,1.15,1,2.78,1,4.57v4.41a9.71,9.71,0,0,0,.28,2.75Zm-.3-5.88c-.82.12-2.2.49-2.2,2,0,.81.36,1.15.89,1.15,1.3,0,1.31-1.54,1.31-2.92Z" transform="translate(-162.27 -79.97)"/>
	<path class="cls-2" d="M199,194.13v-3.2h1.43l.26-4,3-.15v4.16h1.76v3.2h-1.72v4.33c0,.91-.07,1.62.74,1.62a2.89,2.89,0,0,0,1-.22v3.52l-2,.37a2.39,2.39,0,0,1-2.47-1.28,6.33,6.33,0,0,1-.65-3.59v-4.75Z" transform="translate(-162.27 -79.97)"/>
	<path class="cls-2" d="M210.28,203.5h-3.41V190.93h3.41Zm0-13.78h-3.41v-3.34h3.41Z" transform="translate(-162.27 -79.97)"/>
	<path class="cls-2" d="M215.33,190.93v1.77h0a2.6,2.6,0,0,1,4.79-.71,8.35,8.35,0,0,1,.55,3.76v7.75h-3.41v-7.63c0-.76,0-1.82-.74-1.82-1,0-1,1.16-1,2.19v7.26h-3.41V190.93Z" transform="translate(-162.27 -79.97)"/>
	<path class="cls-2" d="M228.44,199.84a3,3,0,0,1,2.19.86,4.72,4.72,0,0,1,1,3.12,3.61,3.61,0,0,1-2,3.47,7.8,7.8,0,0,1-3.35.54c-1.46,0-4.77-.15-4.77-3.1a2.56,2.56,0,0,1,1.28-2.44,2.72,2.72,0,0,1-.81-2,3.05,3.05,0,0,1,1.69-2.78,3,3,0,0,1-1.43-2.9c0-3.25,2.51-3.94,4.3-3.94a4.64,4.64,0,0,1,1.64.25c.19-1.82.82-3,2.19-3l1,.07.23,0-.09,3.37-.84,0c-.31,0-.79,0-1,.46a4.34,4.34,0,0,1,1,2.83c0,3.15-2.26,3.84-4,3.84l-.4,0-.36,0c-.29,0-.86,0-.86.62s.63.59.94.59Zm-3.15,3.49c-.39,0-.86,0-.86.79a.87.87,0,0,0,.69.93,5,5,0,0,0,1.71.22c.51,0,1.79.12,1.79-1,0-.84-.59-.79-1-.81l-1.69-.13Zm2.31-8.64c0-1-.34-1.57-1-1.57s-1,.64-1,1.55.38,1.52,1.09,1.52S227.6,195.55,227.6,194.69Z" transform="translate(-162.27 -79.97)"/>
	<path class="cls-2" d="M246.57,196.49a7,7,0,0,0,.9-2.85l3.06.51a11.89,11.89,0,0,1-1.94,5.22,1.33,1.33,0,0,0,1.17.47l.77-.08v3.64a4,4,0,0,1-1.39.27,3.42,3.42,0,0,1-2.79-1.35,4.36,4.36,0,0,1-3.38,1.43c-2.27,0-4.75-1.46-4.75-5.19a4.72,4.72,0,0,1,2.74-4.65,6.62,6.62,0,0,1-1-3.3c0-3.15,2-4.23,3.89-4.23s3.72,1.13,3.72,4.13a4.38,4.38,0,0,1-2.23,4.16Zm-4-.15a2,2,0,0,0-.86,1.9c0,1.25.67,1.87,1.5,1.87a1.6,1.6,0,0,0,1.32-.69Zm2.29-5.68c0-.76-.38-1.26-.9-1.26s-.82.4-.82,1.09a2.89,2.89,0,0,0,.86,1.74A1.68,1.68,0,0,0,244.85,190.66Z" transform="translate(-162.27 -79.97)"/>
	<path class="cls-2" d="M268.09,197.35c-.22,3.89-2.2,6.4-4.93,6.4-3.54,0-5.4-3.67-5.4-8.47s1.63-8.9,5.35-8.9c3,0,4.74,2.56,5,6.76l-3.38.25c0-1.43-.34-3.22-1.56-3.22-1.61,0-1.67,3.51-1.67,5.11s.06,4.58,1.7,4.58c1.12,0,1.55-1.4,1.6-2.81Z" transform="translate(-162.27 -79.97)"/>
	<path class="cls-2" d="M278.92,197.33c0,3.81-2.15,6.42-4.84,6.42s-4.84-2.61-4.84-6.42c0-4,2.08-6.65,4.84-6.65S278.92,193.29,278.92,197.33Zm-6-.18c0,3.37.57,3.62,1.19,3.62s1.19-.25,1.19-3.62c0-1.2,0-3.39-1.19-3.39S272.89,196,272.89,197.15Z" transform="translate(-162.27 -79.97)"/>
	<path class="cls-2" d="M289.42,197.33c0,3.81-2.15,6.42-4.84,6.42s-4.84-2.61-4.84-6.42c0-4,2.09-6.65,4.84-6.65S289.42,193.29,289.42,197.33Zm-6-.18c0,3.37.57,3.62,1.19,3.62s1.19-.25,1.19-3.62c0-1.2,0-3.39-1.19-3.39S283.39,196,283.39,197.15Z" transform="translate(-162.27 -79.97)"/>
	<path class="cls-2" d="M294.19,203.5h-3.41V186.63h3.41Z" transform="translate(-162.27 -79.97)"/>
	<path class="cls-2" d="M299.45,203.5H296V190.93h3.41Zm0-13.78H296v-3.34h3.41Z" transform="translate(-162.27 -79.97)"/>
	<path class="cls-2" d="M304.5,190.93v1.77h0a2.6,2.6,0,0,1,4.79-.71,8.35,8.35,0,0,1,.55,3.76v7.75h-3.41v-7.63c0-.76,0-1.82-.74-1.82-1,0-1,1.16-1,2.19v7.26h-3.42V190.93Z" transform="translate(-162.27 -79.97)"/>
	<path class="cls-2" d="M317.61,199.84a3,3,0,0,1,2.19.86,4.72,4.72,0,0,1,1,3.12,3.6,3.6,0,0,1-2,3.47,7.73,7.73,0,0,1-3.34.54c-1.46,0-4.77-.15-4.77-3.1a2.56,2.56,0,0,1,1.28-2.44,2.68,2.68,0,0,1-.81-2,3,3,0,0,1,1.68-2.78,3.06,3.06,0,0,1-1.42-2.9c0-3.25,2.51-3.94,4.3-3.94a4.64,4.64,0,0,1,1.64.25c.19-1.82.82-3,2.18-3l1,.07.23,0-.09,3.37-.84,0c-.31,0-.79,0-1,.46a4.33,4.33,0,0,1,1,2.83c0,3.15-2.25,3.84-4,3.84l-.39,0-.36,0c-.3,0-.86,0-.86.62s.63.59.94.59Zm-3.15,3.49c-.39,0-.86,0-.86.79a.87.87,0,0,0,.69.93,4.94,4.94,0,0,0,1.7.22c.52,0,1.8.12,1.8-1,0-.84-.59-.79-1-.81l-1.69-.13Zm2.31-8.64c0-1-.34-1.57-1-1.57s-1,.64-1,1.55.38,1.52,1.09,1.52S316.77,195.55,316.77,194.69Z" transform="translate(-162.27 -79.97)"/>
	<path class="cls-2" d="M330.47,197.74c.31,1.51,1.1,2,2.15,2,.47,0,1.4-.1,1.4-1s-.92-1.23-1.45-1.37c-2.22-.62-4.86-1.48-4.86-5.49a6.17,6.17,0,0,1,1.52-4.23,4.7,4.7,0,0,1,3.39-1.28c2.05,0,4,1.2,4.76,4.13l-3,1.31c-.34-1.26-1-1.7-1.91-1.7a1,1,0,0,0-1.17,1.08c0,.89.86,1.06,1.31,1.21a10,10,0,0,1,3.34,1.35,5.28,5.28,0,0,1,1.75,4.3c0,4.06-2.82,5.69-5.27,5.69s-4.68-1.48-5.32-5.15Z" transform="translate(-162.27 -79.97)"/>
	<path class="cls-2" d="M344.23,204.26c-.66,2.61-1.54,3.59-3.5,3.59l-1.44-.09-.3,0v-3.49l1.24.15c.47,0,1.5,0,1.5-1a5.47,5.47,0,0,0-.22-1.14l-3.09-11.36h3.71l1.44,6.69,1.54-6.69h2.51Z" transform="translate(-162.27 -79.97)"/>
	<path class="cls-2" d="M350.89,199.42c.19,1.2,1.13,1.35,1.88,1.35.34,0,1.3-.05,1.3-.79s-1.17-.76-1.48-.81c-1.84-.37-4-.88-4-4.23a4.33,4.33,0,0,1,1.36-3.3,4.06,4.06,0,0,1,2.83-1,4,4,0,0,1,4,3.28l-2.6.71a1.49,1.49,0,0,0-1.54-1.11c-.27,0-1.1.12-1.1.67a.67.67,0,0,0,.52.64,9.94,9.94,0,0,0,1.48.29,4.76,4.76,0,0,1,2.39.94,4.16,4.16,0,0,1,1.24,3.19c0,3.47-2.56,4.46-4.54,4.46s-3.78-.91-4.43-3.82Z" transform="translate(-162.27 -79.97)"/>
	<path class="cls-2" d="M357.39,194.13v-3.2h1.43l.26-4,3-.15v4.16h1.76v3.2h-1.72v4.33c0,.91-.07,1.62.74,1.62a3,3,0,0,0,1-.22v3.52l-2,.37a2.39,2.39,0,0,1-2.46-1.28,6.33,6.33,0,0,1-.65-3.59v-4.75Z" transform="translate(-162.27 -79.97)"/>
	<path class="cls-2" d="M374.35,199.29c-.53,3.05-2.42,4.46-4.51,4.46a4.29,4.29,0,0,1-3.55-1.65,7.79,7.79,0,0,1-1.44-4.72,8.83,8.83,0,0,1,1.29-4.75,4.23,4.23,0,0,1,3.5-1.95c2.92,0,4.71,2.71,4.71,6.84v.67h-5.89c0,1.35.3,2.33,1.33,2.33.78,0,1.21-.44,1.34-1.52Zm-3.44-3.56c0-1.23-.28-2.17-1.24-2.17s-1.26,1-1.22,2.17Z" transform="translate(-162.27 -79.97)"/>
	<path class="cls-2" d="M378.79,190.93v1.7h0a2.5,2.5,0,0,1,4.87,0,2.71,2.71,0,0,1,2.64-1.95,2.44,2.44,0,0,1,2.05,1.09,6.18,6.18,0,0,1,.63,3.49v8.24h-3.34V196c0-.81.07-1.72-.72-1.72-1,0-.93,1.27-.93,2.28v7h-3.34V196c0-.79,0-1.8-.78-1.8S379,195,379,196v7.55h-3.34V190.93Z" transform="translate(-162.27 -79.97)"/>
	<path class="cls-2" d="M392.89,199.42c.19,1.2,1.14,1.35,1.88,1.35.35,0,1.31-.05,1.31-.79s-1.17-.76-1.48-.81c-1.84-.37-4-.88-4-4.23a4.3,4.3,0,0,1,1.36-3.3,4,4,0,0,1,2.82-1,4,4,0,0,1,4,3.28l-2.6.71a1.49,1.49,0,0,0-1.53-1.11c-.28,0-1.1.12-1.1.67a.68.68,0,0,0,.51.64,10.2,10.2,0,0,0,1.48.29,4.79,4.79,0,0,1,2.4.94,4.16,4.16,0,0,1,1.24,3.19c0,3.47-2.57,4.46-4.55,4.46s-3.77-.91-4.42-3.82Z" transform="translate(-162.27 -79.97)"/>
	<path class="cls-3" d="M282.54,177.4,162.38,156.19l9-76.12H393.26l9,76.12Z" transform="translate(-162.27 -79.97)"/>
	<path class="cls-4" d="M282.31,168.2,172.18,148.7l7.13-59.86h206l7.13,59.86Z" transform="translate(-162.27 -79.97)"/>
	<path class="cls-5" d="M202.33,97.46h8.26v12h.13c.74-2.08,3.82-3.6,6.36-3.6,5.28,0,5.95,3.85,5.95,7.88v21c0,4-1.58,7.76-6.86,7.76-2.54,0-13.84-.14-13.84-.14Zm8.26,38.38a2.11,2.11,0,0,0,2.08,1.89,2.34,2.34,0,0,0,2.1-1.89V114.29a2.35,2.35,0,0,0-2.1-1.89,2.11,2.11,0,0,0-2.08,1.89Z" transform="translate(-162.27 -79.97)"/>
	<path class="cls-5" d="M241.1,109.37h.14a7.69,7.69,0,0,1,6.8-3.53c4.21,0,5.27,2.4,5.27,6.31v9.61h-8.25v-7.47c-.23-.88-.75-1.89-1.88-1.89a2.12,2.12,0,0,0-2.08,1.89v28h-8.18V106.28h8.18Z" transform="translate(-162.27 -79.97)"/>
	<path class="cls-5" d="M282.7,106.28l-6,36.43c-1,6.24-2.21,8.6-10.56,8.6h-4.28v-6.83h2.68c1.8,0,2.4-.32,2.4-1.64a7.15,7.15,0,0,0-.06-1.07l-6.73-35.49h8.49l3.25,27.55H272l2.8-27.55Z" transform="translate(-162.27 -79.97)"/>
	<path class="cls-5" d="M290.92,114c0-5.42,4.54-8.73,9.95-8.73s10,2.4,10,9.34c0,0-.21,25.66,0,28.06,0,0-9.47.45-14.29.13-4.27-.28-5.68-2.39-5.68-6.49v-7.75c0-9.07,12-5.61,12-13.42v-1.45a2.11,2.11,0,0,0-2.07-1.89,1.83,1.83,0,0,0-1.77,1.89V117h-8.18Zm8.16,21.24a1.64,1.64,0,0,0,1.7,1.85,1.7,1.7,0,0,0,1.78-1.85V125l-1.78,1c-1.39,1-1.7,1.24-1.7,2.78Z" transform="translate(-162.27 -79.97)"/>
	<path class="cls-5" d="M329.92,109.44h.13c.54-2.21,3.25-3.9,5.52-3.9,5.41,0,6.82,4,6.82,8.18v28.61h-8.25v-28A2.4,2.4,0,0,0,332,112.4a2.69,2.69,0,0,0-2.35,1.89v28h-8.21V106.28h8.48Z" transform="translate(-162.27 -79.97)"/>
	<path class="cls-5" d="M362.11,105.83h4v5.92h-4V134c.27,1.14.47,2.46,1.74,2.46h2.51v6.23H361c-6.08-.31-7.15-2.07-7.15-7.62V111.75h-3.63v-5.92h3.63V99h8.22Z" transform="translate(-162.27 -79.97)"/>
</svg>
